HIERARCHY
ROOT Hips
{
	OFFSET -0.001795 -0.223333 0.028219
	CHANNELS 6 Xposition Yposition Zposition Zrotation Yrotation Xrotation 
	JOINT LeftUpLeg
	{
		OFFSET 0.069520 -0.091406 -0.006815
		CHANNELS 3 Zrotation Yrotation Xrotation
		JOINT LeftLeg
		{
			OFFSET 0.034277 -0.375199 -0.004496
			CHANNELS 3 Zrotation Yrotation Xrotation
			JOINT LeftFoot
			{
				OFFSET -0.013596 -0.397961 -0.043693
				CHANNELS 3 Zrotation Yrotation Xrotation
				JOINT LeftToe
				{
					OFFSET 0.026358 -0.055791 0.119288
					CHANNELS 3 Zrotation Yrotation Xrotation
					End Site
					{
						OFFSET 0.000000 0.000000 0.000000
					}
				}
			}
		}
	}
	JOINT RightUpLeg
	{
		OFFSET -0.067670 -0.090522 -0.004320
		CHANNELS 3 Zrotation Yrotation Xrotation
		JOINT RightLeg
		{
			OFFSET -0.038290 -0.382569 -0.008850
			CHANNELS 3 Zrotation Yrotation Xrotation
			JOINT RightFoot
			{
				OFFSET 0.015774 -0.398415 -0.042312
				CHANNELS 3 Zrotation Yrotation Xrotation
				JOINT RightToe
				{
					OFFSET -0.025372 -0.048144 0.123348
					CHANNELS 3 Zrotation Yrotation Xrotation
					End Site
					{
						OFFSET 0.000000 0.000000 0.000000
					}
				}
			}
		}
	}
	JOINT Spine
	{
		OFFSET -0.002533 0.108963 -0.026696
		CHANNELS 3 Zrotation Yrotation Xrotation
		JOINT Spine1
		{
			OFFSET 0.005487 0.135180 0.001092
			CHANNELS 3 Zrotation Yrotation Xrotation
			JOINT Spine2
			{
				OFFSET 0.001457 0.052922 0.025425
				CHANNELS 3 Zrotation Yrotation Xrotation
				JOINT Neck
				{
					OFFSET -0.002778 0.213870 -0.042857
					CHANNELS 3 Zrotation Yrotation Xrotation
					JOINT Head
					{
						OFFSET 0.005152 0.064970 0.051349
						CHANNELS 3 Zrotation Yrotation Xrotation
						End Site
						{
							OFFSET 0.000000 0.000000 0.000000
						}
					}
				}
				JOINT LeftShoulder
				{
					OFFSET 0.078845 0.121749 -0.034090
					CHANNELS 3 Zrotation Yrotation Xrotation
					JOINT LeftArm
					{
						OFFSET 0.090977 0.030469 -0.008868
						CHANNELS 3 Zrotation Yrotation Xrotation
						JOINT LeftForeArm
						{
							OFFSET 0.259612 -0.012772 -0.027456
							CHANNELS 3 Zrotation Yrotation Xrotation
							JOINT LeftHand
							{
								OFFSET 0.249234 0.008986 -0.001171
								CHANNELS 3 Zrotation Yrotation Xrotation
								End Site
								{
									OFFSET 0.000000 0.000000 0.000000
								}
							}
						}
					}
				}
				JOINT RightShoulder
				{
					OFFSET -0.081759 0.118833 -0.038615
					CHANNELS 3 Zrotation Yrotation Xrotation
					JOINT RightArm
					{
						OFFSET -0.096012 0.032551 -0.009143
						CHANNELS 3 Zrotation Yrotation Xrotation
						JOINT RightForeArm
						{
							OFFSET -0.253742 -0.013329 -0.021401
							CHANNELS 3 Zrotation Yrotation Xrotation
							JOINT RightHand
							{
								OFFSET -0.255298 0.007772 -0.005559
								CHANNELS 3 Zrotation Yrotation Xrotation
								End Site
								{
									OFFSET 0.000000 0.000000 0.000000
								}
							}
						}
					}
				}
			}
		}
	}
}
MOTION
Frames: 9
Frame Time: 0.050000
0.000000 0.942378 0.000000 1.383795 28.186268 19.081846 4.920098 -0.695553 -4.641725 -2.872455 0.035767 -6.330798 7.372185 16.810020 9.911215 0.000000 0.000000 0.000000 -1.202965 0.852716 -20.017230 -3.518863 0.456783 -0.417216 0.055491 -0.081703 5.653585 0.000000 0.000000 0.000000 5.198423 -0.173111 -4.857040 6.416504 -2.232594 -5.335514 -7.314974 -9.052563 5.089767 7.657397 -3.187028 -13.162580 0.000000 0.000000 0.000000 0.999356 -21.147949 6.998252 -21.177937 -59.514566 5.470223 16.147378 -20.973192 -2.321339 0.000000 0.000000 0.000000 9.212926 5.045088 2.404407 54.918408 24.988826 6.859013 25.241662 59.877821 19.342205 0.000000 0.000000 0.000000 
0.001085 0.942808 0.000940 1.343196 30.157128 19.959987 4.195664 -0.724094 -5.945958 -0.421203 0.041135 -7.700724 6.364415 16.188123 11.975235 0.000000 0.000000 0.000000 -1.902494 0.683483 -19.573951 -2.455324 0.241245 -2.098934 -0.296700 -0.825130 8.113772 0.000000 0.000000 0.000000 6.121963 -0.184033 -6.641526 6.294838 -2.239836 -4.879259 -8.119195 -9.173855 5.084015 11.321424 -5.796736 -11.815174 0.000000 0.000000 0.000000 0.600355 -20.937154 6.895131 -20.831865 -59.246484 5.140868 16.318436 -21.711699 -2.474651 0.000000 0.000000 0.000000 8.422526 2.994962 1.497596 55.187354 24.172754 6.673337 26.792212 59.943890 20.601656 0.000000 0.000000 0.000000 
0.001939 0.942920 0.001596 0.489882 30.143691 18.596565 4.716701 -0.743855 -5.696313 0.900688 0.073127 -6.554024 6.134823 15.796335 11.716916 0.000000 0.000000 0.000000 -0.831264 0.886352 -18.730646 -3.064482 0.376105 -0.999573 -0.184920 -0.543723 6.812859 0.000000 0.000000 0.000000 7.799056 -0.288035 -5.895130 5.372074 -1.713072 -5.742906 -8.436993 -7.417641 4.655447 11.015429 -6.187378 -8.912892 0.000000 0.000000 0.000000 0.448540 -21.919578 7.133350 -20.782898 -58.242765 4.720863 14.502832 -23.975630 -2.425562 0.000000 0.000000 0.000000 9.067521 1.856079 1.193005 53.144838 22.085618 5.382221 30.873826 59.478001 23.322113 0.000000 0.000000 0.000000 
0.002771 0.943240 0.002002 0.663411 30.874376 18.982111 4.459139 -0.743268 -5.947643 1.524296 0.071231 -6.225678 6.412788 16.073398 11.398042 0.000000 0.000000 0.000000 -1.677860 0.733087 -18.680697 -1.855416 0.186453 -1.729084 0.483229 0.918052 7.028204 0.000000 0.000000 0.000000 8.594719 -0.309336 -6.674532 4.839602 -1.602168 -4.962042 -8.709728 -5.663305 3.885949 13.352660 -7.209477 -10.506606 0.000000 0.000000 0.000000 0.839258 -22.453245 7.185519 -19.241713 -58.218543 3.683467 12.360585 -24.770853 -2.101588 0.000000 0.000000 0.000000 7.024306 0.637391 0.693354 55.497837 21.346186 5.923583 27.794272 58.463518 21.437391 0.000000 0.000000 0.000000 
0.003289 0.943473 0.002084 0.873913 31.208488 18.829134 4.959144 -0.779739 -5.858153 0.806993 0.064173 -5.806595 6.190563 15.996637 12.057381 0.000000 0.000000 0.000000 -1.845019 0.673483 -19.050515 -2.224380 0.298253 -0.276174 0.148102 0.246215 6.767533 0.000000 0.000000 0.000000 8.552907 -0.292725 -6.899602 4.678846 -1.467168 -5.407751 -8.854277 -5.333156 4.722461 13.934771 -7.628003 -10.534840 0.000000 0.000000 0.000000 0.451468 -23.184958 7.385240 -18.735071 -56.481409 3.182969 12.072843 -27.901395 -2.375992 0.000000 0.000000 0.000000 7.794698 -0.231003 0.408700 53.957107 21.589047 5.592711 23.737070 57.110441 18.667827 0.000000 0.000000 0.000000 
0.003533 0.944203 0.002247 0.842454 31.155884 19.241460 5.488277 -0.847699 -6.187007 0.641574 0.063186 -5.661187 5.966423 15.778282 12.188879 0.000000 0.000000 0.000000 -1.930153 0.628401 -19.825415 -2.304307 0.323247 0.091773 0.605581 1.149698 7.639624 0.000000 0.000000 0.000000 8.364480 -0.273229 -7.224247 5.029876 -1.664963 -5.067906 -8.890551 -4.468993 4.298447 14.589855 -7.858420 -11.037885 0.000000 0.000000 0.000000 0.573111 -21.956207 6.927159 -20.758719 -55.329950 3.868337 12.066327 -31.682125 -2.867682 0.000000 0.000000 0.000000 7.468062 -0.025608 0.564522 52.998180 21.858756 5.643695 17.664933 55.879973 14.900674 0.000000 0.000000 0.000000 
0.003799 0.944636 0.002916 0.752502 30.751787 19.159569 5.221359 -0.822596 -6.223862 0.649362 0.064015 -5.402636 6.115136 15.953772 12.145708 0.000000 0.000000 0.000000 -2.099342 0.601283 -19.976054 -2.015815 0.287752 0.280576 0.277006 0.399130 8.068147 0.000000 0.000000 0.000000 8.186555 -0.248282 -7.337651 5.016209 -1.668956 -5.021714 -8.911662 -4.008198 4.027165 15.434672 -8.062104 -12.144838 0.000000 0.000000 0.000000 0.022348 -21.277119 6.659368 -23.726517 -52.317502 4.801982 10.123394 -38.054859 -3.023012 0.000000 0.000000 0.000000 7.686295 -0.525109 0.377499 51.824185 22.277042 5.600153 14.683084 53.980397 12.722954 0.000000 0.000000 0.000000 
0.004275 0.945176 0.004056 0.270649 30.731648 18.785955 5.314863 -0.815835 -5.977025 0.923722 0.064983 -5.545861 6.515645 16.399692 12.038613 0.000000 0.000000 0.000000 -1.933459 0.646450 -19.733348 -1.598605 0.232464 0.490905 0.460099 0.738934 8.333623 0.000000 0.000000 0.000000 8.466540 -0.260732 -7.237767 5.020548 -1.612822 -5.407808 -9.059986 -3.640859 3.830151 16.037718 -8.191441 -12.899166 0.000000 0.000000 0.000000 -1.220933 -20.545977 6.331092 -27.650376 -49.974265 6.040893 8.620024 -42.905584 -3.064688 0.000000 0.000000 0.000000 7.617996 -0.792134 0.276765 50.692386 21.320336 4.982746 11.751477 53.029958 10.978275 0.000000 0.000000 0.000000 
0.004850 0.945643 0.005200 -0.042116 30.838939 18.489641 5.193427 -0.776096 -5.436437 1.171773 0.069030 -6.134325 6.359327 16.186592 12.076918 0.000000 0.000000 0.000000 -1.868794 0.670994 -19.223751 -1.584128 0.213297 -0.072535 0.350278 0.499051 8.607168 0.000000 0.000000 0.000000 8.378717 -0.241538 -7.371315 5.474784 -1.798276 -5.435831 -9.745957 -3.188818 3.719917 16.463296 -8.131123 -13.793192 0.000000 0.000000 0.000000 -1.395235 -19.269453 5.830192 -31.622873 -48.516567 7.142880 6.923160 -47.695507 -2.999299 0.000000 0.000000 0.000000 7.659791 -1.895909 -0.187002 50.626181 20.834337 4.828431 10.505215 51.430126 10.032569 0.000000 0.000000 0.000000 
